<?xml version="1.0" encoding="utf-8"?>
<!-- Generator: Adobe Illustrator 19.0.0, SVG Export Plug-In . SVG Version: 6.00 Build 0)  -->
<svg version="1.1" id="Layer_1" xmlns="http://www.w3.org/2000/svg" xmlns:xlink="http://www.w3.org/1999/xlink" x="0px" y="0px"
	 viewBox="-239 373 132 48" style="enable-background:new -239 373 132 48;" xml:space="preserve">
<style type="text/css">
	.st0{display:none;}
	.st1{display:inline;}
	.st2{fill:#673AB7;}
	.st3{fill:#FFFFFF;}
	.st4{fill:#1780C8;}
	.st5{font-family:'BlackthornsDemo-Regular';}
	.st6{font-size:13.1123px;}
</style>
<g id="Layer_1_1_" class="st0">
	<title>Group 39</title>
	<desc>Created with Sketch.</desc>
	<g id="Page-1" class="st1">
		<g id="_x30_-homepage" transform="translate(-24.000000, -12.000000)">
			<g id="header">
				<g id="Group-39" transform="translate(24.000000, 12.000000)">
					<g id="Group-6">
						<g id="Group-5">
							<path id="Fill-16" class="st2" d="M-191.3,396.9c0,12.9-10.4,23.4-23.3,23.4c-12.9,0-23.4-10.4-23.4-23.4
								s10.5-23.4,23.4-23.4C-201.7,373.5-191.3,384-191.3,396.9"/>
							<path id="Fill-18" class="st3" d="M-210.9,400.3c0,0.5-0.1,0.9-0.2,1.2c-0.1,0.4-0.3,0.7-0.6,0.9c-0.3,0.3-0.6,0.5-1,0.6
								c-0.4,0.1-0.8,0.2-1.4,0.2h-0.5h-0.4c-0.9,0-1.6-0.2-2.1-0.7s-0.7-1.2-0.7-2.2v-3.9v-3.9c0-0.1,0-0.3,0.1-0.3
								c0.1-0.1,0.2-0.1,0.3-0.1h3h3c0.1,0,0.2,0,0.3,0.1c0.1,0.1,0.1,0.2,0.1,0.3v3.9v3.9H-210.9z M-204.7,389.1h-2.2h-2.2h-0.1
								h-0.1c-0.2,0-0.4-0.1-0.5-0.2c-0.2-0.1-0.3-0.3-0.4-0.5l-2.8-4.2l-2.6-4.3c-0.1-0.2-0.2-0.3-0.4-0.4s-0.4-0.1-0.6-0.1h-1.1
								h-1.1c-0.2,0-0.3,0-0.4,0.1c-0.1,0.1-0.1,0.2-0.1,0.4c0,0.1,0,0.2,0,0.3c0,0.1,0.1,0.2,0.1,0.3l1,1.5l1,1.5
								c0.7,1,1.4,2,2.1,2.9c0.7,0.9,1.5,1.8,2.3,2.6h-5.5h-5.5c-0.2,0-0.4,0.1-0.5,0.2c-0.1,0.1-0.2,0.3-0.2,0.5v0.8v0.8
								c0,0.2,0.1,0.4,0.2,0.6c0.1,0.2,0.3,0.2,0.5,0.2h1.1h1.1c0.1,0,0.2,0.1,0.2,0.1s0.1,0.2,0.1,0.3v4.1v4.1
								c0,0.9,0.1,1.6,0.4,2.3c0.3,0.7,0.6,1.3,1.2,1.8c0.5,0.5,1.1,0.9,1.8,1.1c0.7,0.3,1.4,0.4,2.3,0.4h0.6h0.5
								c0.8,0,1.5-0.1,2.1-0.4c0.6-0.3,1-0.7,1.3-1.2h0.1h0.1v3.4v3.4c0,0.2,0.1,0.4,0.2,0.5c0.1,0.1,0.3,0.2,0.5,0.2h1h1
								c0.2,0,0.4-0.1,0.5-0.2c0.1-0.1,0.2-0.3,0.2-0.5V402v-9.5c0-0.1,0-0.3,0.1-0.3c0.1-0.1,0.2-0.1,0.3-0.1h1.2h1.2
								c0.2,0,0.4-0.1,0.5-0.2s0.2-0.3,0.2-0.5v-0.8v-0.8c0-0.2-0.1-0.4-0.2-0.5C-204.3,389.2-204.5,389.1-204.7,389.1z"/>
						</g>
						<g id="Group-4" transform="translate(57.462185, 14.799999)">
							<g id="Group-3">
								<path id="Fill-2" d="M-236.4,380.8h3.3c0.9,0,1.6-0.2,2.1-0.7c0.4-0.5,0.7-1.1,0.7-1.9c0-0.8-0.2-1.4-0.7-1.9
									c-0.5-0.4-1.1-0.7-2.1-0.7h-3.3V380.8z M-236.4,382.2v5.3h-1.7v-13.3h5c1.4,0,2.5,0.4,3.3,1.1c0.8,0.7,1.1,1.7,1.1,2.9
									c0,1.2-0.4,2.2-1.1,2.9c-0.8,0.7-1.9,1.1-3.3,1.1H-236.4z"/>
								<path id="Fill-4" d="M-224.9,379L-224.9,379c0.4-0.5,0.8-0.9,1.3-1.1c0.5-0.3,1-0.4,1.7-0.4c1.1,0,1.9,0.3,2.4,0.9
									c0.6,0.6,0.8,1.6,0.8,2.9v6.2h-1.7v-6.2c0-0.9-0.2-1.5-0.5-1.9c-0.4-0.4-0.9-0.6-1.6-0.6c-0.5,0-1,0.1-1.4,0.4
									c-0.4,0.2-0.7,0.6-1,1v7.2h-1.7v-14.1h1.7C-224.9,373.3-224.9,379-224.9,379z"/>
								<path id="Fill-6" d="M-214.8,382.7c0,1.1,0.2,1.9,0.7,2.6c0.5,0.7,1.1,1,2,1c0.9,0,1.6-0.3,2-1c0.5-0.7,0.7-1.5,0.7-2.6
									v-0.2c0-1.1-0.2-1.9-0.7-2.6c-0.5-0.7-1.1-1-2-1c-0.9,0-1.6,0.3-2,1c-0.4,0.7-0.7,1.6-0.7,2.6V382.7z M-216.5,382.5
									c0-1.5,0.4-2.7,1.2-3.6s1.8-1.4,3.2-1.4c1.4,0,2.5,0.5,3.2,1.4c0.8,0.9,1.2,2.1,1.2,3.6v0.2c0,1.5-0.4,2.7-1.2,3.6
									c-0.8,0.9-1.8,1.4-3.2,1.4c-1.4,0-2.5-0.5-3.2-1.4c-0.8-0.9-1.2-2.1-1.2-3.6V382.5z"/>
								<path id="Fill-8" d="M-204,377.6l0.1,1.5l0,0c0.3-0.5,0.7-0.9,1.2-1.2c0.5-0.3,1.1-0.4,1.7-0.4c1.1,0,1.9,0.3,2.5,0.9
									c0.5,0.6,0.8,1.5,0.8,2.9v6.2h-1.7v-6.2c0-0.9-0.2-1.5-0.5-1.9c-0.3-0.4-0.9-0.5-1.6-0.5c-0.5,0-1,0.1-1.4,0.4
									c-0.4,0.3-0.7,0.6-1,1.1v7.1h-1.7v-9.9H-204z"/>
								<path id="Fill-10" d="M-191.3,378.8c-0.6,0-1.2,0.3-1.6,0.8c-0.4,0.5-0.7,1.2-0.8,2h4.7v-0.2c0-0.7-0.2-1.3-0.6-1.8
									C-189.9,379.1-190.5,378.8-191.3,378.8 M-191,387.7c-1.4,0-2.5-0.4-3.3-1.3s-1.2-2.1-1.2-3.6v-0.4c0-1.4,0.4-2.6,1.2-3.5
									s1.8-1.4,3-1.4c1.3,0,2.3,0.4,3,1.2c0.7,0.8,1,1.9,1,3.2v1.1h-6.5c0,1,0.3,1.8,0.7,2.4c0.5,0.6,1.1,0.9,2,0.9
									c0.6,0,1.1-0.1,1.6-0.3c0.4-0.2,0.8-0.4,1.2-0.7l0.7,1.1c-0.4,0.4-0.8,0.6-1.4,0.9C-189.5,387.6-190.2,387.7-191,387.7"/>
								<path id="Fill-12" d="M-183.3,380.8h3.3c0.9,0,1.6-0.2,2.1-0.7c0.4-0.5,0.7-1.1,0.7-1.9c0-0.8-0.2-1.4-0.7-1.9
									c-0.5-0.4-1.1-0.7-2.1-0.7h-3.3V380.8z M-183.3,382.2v5.3h-1.7v-13.3h5c1.4,0,2.5,0.4,3.3,1.1c0.8,0.7,1.1,1.7,1.1,2.9
									c0,1.2-0.4,2.2-1.1,2.9c-0.8,0.7-1.9,1.1-3.3,1.1C-180,382.2-183.3,382.2-183.3,382.2z"/>
								<path id="Fill-14" d="M-169.8,378.8c-0.6,0-1.2,0.3-1.6,0.8c-0.4,0.5-0.7,1.2-0.8,2h4.8v-0.2c0-0.7-0.2-1.3-0.6-1.8
									C-168.5,379.1-169.1,378.8-169.8,378.8 M-169.6,387.7c-1.4,0-2.5-0.4-3.3-1.3s-1.2-2.1-1.2-3.6v-0.4c0-1.4,0.4-2.6,1.2-3.5
									c0.8-0.9,1.8-1.4,3-1.4c1.3,0,2.3,0.4,3,1.2c0.7,0.8,1,1.9,1,3.2v1.1h-6.5c0,1,0.3,1.8,0.7,2.4c0.5,0.6,1.1,0.9,2,0.9
									c0.6,0,1.1-0.1,1.6-0.3c0.4-0.2,0.8-0.4,1.2-0.7l0.7,1.1c-0.4,0.4-0.8,0.6-1.4,0.9C-168,387.6-168.7,387.7-169.6,387.7"/>
							</g>
							<g id="Group-2" transform="translate(0.000000, 20.507066)">
								<polygon id="Fill-20" points="-238.5,377.1 -237.8,377.1 -237.8,373.5 -238.5,373.5 								"/>
								<polygon id="Fill-22" points="-233.2,377.1 -233.9,377.1 -235.6,374.5 -235.6,377.1 -236.2,377.1 -236.2,373.5 
									-235.6,373.5 -233.9,376.1 -233.9,373.5 -233.2,373.5 								"/>
								<path id="Fill-23" d="M-231,374v2.6h0.4c0.2,0,0.3,0,0.5-0.1c0.1-0.1,0.3-0.1,0.3-0.2c0.1-0.1,0.2-0.2,0.2-0.4
									c0-0.2,0.1-0.3,0.1-0.5v-0.2c0-0.4-0.1-0.7-0.3-0.9c-0.1-0.2-0.4-0.3-0.7-0.3H-231z M-231.6,377.1v-3.6h1.1
									c0.3,0,0.5,0,0.7,0.1s0.4,0.2,0.5,0.4c0.2,0.2,0.3,0.3,0.4,0.5c0.1,0.2,0.1,0.4,0.1,0.7v0.2c0,0.3,0,0.5-0.1,0.7
									c-0.1,0.2-0.2,0.4-0.4,0.5c-0.1,0.2-0.3,0.3-0.5,0.4s-0.5,0.1-0.7,0.1H-231.6z"/>
								<polygon id="Fill-24" points="-227.3,377.1 -226.6,377.1 -226.6,373.5 -227.3,373.5 								"/>
								<path id="Fill-25" d="M-224.2,375.8h1.2l-0.6-1.5L-224.2,375.8z M-222.9,376.3h-1.5l-0.3,0.8h-0.7l1.4-3.6h0.6l1.4,3.6h-0.7
									L-222.9,376.3z"/>
								<polygon id="Fill-26" points="-220.6,373.6 -220.7,374.6 -221.1,374.6 -221.1,373.3 -220.6,373.3 								"/>
								<path id="Fill-27" d="M-217.3,376.2c0-0.1,0-0.1,0-0.2s-0.1-0.1-0.1-0.2c-0.1,0-0.1-0.1-0.2-0.1c-0.1,0-0.2-0.1-0.4-0.1
									c-0.2-0.1-0.4-0.1-0.5-0.2c-0.2-0.1-0.3-0.1-0.4-0.2c-0.1-0.1-0.2-0.2-0.3-0.3c-0.1-0.1-0.1-0.2-0.1-0.4
									c0-0.1,0-0.3,0.1-0.4c0.1-0.1,0.2-0.2,0.3-0.3c0.1-0.1,0.3-0.2,0.4-0.2c0.2,0,0.4-0.1,0.6-0.1c0.2,0,0.4,0,0.6,0.1
									s0.3,0.1,0.4,0.2c0.1,0.1,0.2,0.2,0.3,0.4c0.1,0.1,0.1,0.3,0.1,0.4h-0.7c0-0.1,0-0.2,0-0.2c0-0.1-0.1-0.1-0.1-0.2
									c-0.2-0.1-0.3-0.2-0.4-0.2c-0.1,0-0.2,0-0.3,0s-0.2,0-0.3,0c-0.1,0-0.2,0.1-0.2,0.1c-0.1,0-0.1,0.1-0.1,0.2
									c0,0.1,0,0.1,0,0.2s0.1,0.2,0.2,0.3c0.1,0.1,0.3,0.2,0.5,0.2c0.2,0.1,0.4,0.1,0.6,0.2c0.2,0.1,0.3,0.2,0.4,0.2
									c0.1,0.1,0.2,0.2,0.2,0.3c0.1,0.1,0.1,0.2,0.1,0.4c0,0.2,0,0.3-0.1,0.4c-0.1,0.1-0.2,0.2-0.3,0.3c-0.1,0.2-0.2,0.2-0.4,0.3
									c-0.2,0-0.4,0.1-0.6,0.1s-0.4,0-0.5-0.1c-0.2-0.1-0.4-0.1-0.5-0.2s-0.3-0.2-0.3-0.4c-0.1-0.1-0.1-0.3-0.1-0.5h0.7
									c0,0.1,0,0.2,0.1,0.3c0,0.1,0.1,0.1,0.2,0.2c0.1,0.1,0.2,0.1,0.3,0.1c0.1,0,0.2,0,0.3,0c0.2,0,0.4,0,0.5-0.1
									C-217.3,376.4-217.3,376.3-217.3,376.2"/>
								<path id="Fill-28" d="M-212.5,375.3h0.8c0.1,0,0.2,0,0.3,0c0.1,0,0.2-0.1,0.2-0.1c0.2-0.2,0.2-0.2,0.2-0.3s0-0.2,0-0.2
									c0-0.1,0-0.2,0-0.2c0-0.1-0.1-0.1-0.1-0.2c-0.1-0.1-0.1-0.1-0.2-0.1c-0.1-0.2-0.2-0.2-0.4-0.2h-0.8V375.3z M-212.5,375.8
									v1.3h-0.7v-3.6h1.5c0.2,0,0.4,0,0.6,0.1c0.2,0.1,0.3,0.1,0.4,0.2c0.1,0.1,0.2,0.2,0.3,0.4c0.1,0.2,0.1,0.3,0.1,0.5
									c0,0.2,0,0.3-0.1,0.5c-0.1,0.1-0.2,0.3-0.3,0.4c-0.1,0.1-0.3,0.2-0.4,0.2c-0.2,0.1-0.4,0.1-0.6,0.1h-0.8V375.8z"/>
								<path id="Fill-29" d="M-208.5,375.8h1.1l-0.6-1.5L-208.5,375.8z M-207.2,376.3h-1.5l-0.3,0.8h-0.7l1.4-3.6h0.6l1.4,3.6h-0.7
									L-207.2,376.3z"/>
								<polygon id="Fill-30" points="-204.2,375.2 -203.3,373.5 -202.5,373.5 -203.8,375.8 -203.8,377.1 -204.5,377.1 
									-204.5,375.8 -205.8,373.5 -205,373.5 								"/>
								<polygon id="Fill-31" points="-200.5,373.5 -199.4,376.3 -198.3,373.5 -197.4,373.5 -197.4,377.1 -198.1,377.1 
									-198.1,375.9 -198,374.3 -199.2,377.1 -199.6,377.1 -200.8,374.3 -200.7,375.9 -200.7,377.1 -201.4,377.1 -201.4,373.5 
																	"/>
								<polygon id="Fill-32" points="-193.6,375.5 -195.2,375.5 -195.2,376.6 -193.4,376.6 -193.4,377.1 -195.9,377.1 
									-195.9,373.5 -193.4,373.5 -193.4,374 -195.2,374 -195.2,375 -193.6,375 								"/>
								<polygon id="Fill-33" points="-189,377.1 -189.7,377.1 -191.4,374.5 -191.4,377.1 -192,377.1 -192,373.5 -191.4,373.5 
									-189.7,376.1 -189.7,373.5 -189,373.5 								"/>
								<polygon id="Fill-34" points="-184.7,374 -185.9,374 -185.9,377.1 -186.6,377.1 -186.6,374 -187.8,374 -187.8,373.5 
									-184.7,373.5 								"/>
								<path id="Fill-35" d="M-181.5,376.2c0-0.1,0-0.1,0-0.2s-0.1-0.1-0.1-0.2c-0.1,0-0.1-0.1-0.2-0.1c-0.1,0-0.2-0.1-0.4-0.1
									c-0.2-0.1-0.4-0.1-0.5-0.2c-0.2-0.1-0.3-0.1-0.4-0.2c-0.1-0.1-0.2-0.2-0.3-0.3c-0.1-0.1-0.1-0.2-0.1-0.4
									c0-0.1,0-0.3,0.1-0.4c0.1-0.1,0.2-0.2,0.3-0.3c0.1-0.1,0.3-0.2,0.4-0.2c0.2,0,0.4-0.1,0.6-0.1s0.4,0,0.6,0.1
									s0.3,0.1,0.4,0.2c0,0.1,0.1,0.2,0.2,0.3c0.1,0.1,0.1,0.3,0.1,0.4h-0.7c0-0.1,0-0.2,0-0.2c0-0.1-0.1-0.1-0.1-0.2
									c-0.1,0-0.2-0.1-0.3-0.1c-0.1,0-0.2,0-0.3,0c-0.1,0-0.2,0-0.3,0c-0.1,0-0.2,0.1-0.2,0.1c-0.1,0-0.1,0.1-0.1,0.2
									c0,0.1,0,0.1,0,0.2s0.1,0.2,0.2,0.3c0,0.1,0.2,0.2,0.5,0.2c0.2,0.1,0.4,0.1,0.6,0.2c0.2,0.1,0.3,0.2,0.4,0.2
									c0.1,0.1,0.2,0.2,0.2,0.3c0.1,0.1,0.1,0.2,0.1,0.4c0,0.2,0,0.3-0.1,0.4c-0.1,0.1-0.2,0.2-0.3,0.3c-0.1,0.2-0.3,0.2-0.4,0.3
									c-0.2,0-0.4,0.1-0.6,0.1s-0.4,0-0.5-0.1c-0.2,0-0.3-0.1-0.5-0.2c-0.1-0.1-0.3-0.2-0.3-0.4c-0.1-0.1-0.1-0.3-0.1-0.5h0.6
									c0,0.1,0,0.2,0.1,0.3c0,0.1,0.1,0.1,0.2,0.2c0.1,0.1,0.2,0.1,0.3,0.1c0.1,0,0.2,0,0.3,0c0.2,0,0.4,0,0.5-0.1
									C-181.6,376.4-181.5,376.3-181.5,376.2"/>
								<path id="Fill-36" d="M-176.5,375.8h1.1l-0.6-1.5L-176.5,375.8z M-175.2,376.3h-1.5l-0.3,0.8h-0.7l1.4-3.6h0.6l1.4,3.6h-0.7
									L-175.2,376.3z"/>
								<path id="Fill-37" d="M-172.3,375.3h0.8c0.1,0,0.2,0,0.3,0c0.1,0,0.2-0.1,0.2-0.1c0.1-0.2,0.1-0.2,0.1-0.3s0-0.2,0-0.2
									c0-0.1,0-0.2,0-0.2c0-0.1-0.1-0.1-0.1-0.2c-0.1-0.1-0.1-0.1-0.2-0.1c-0.1-0.2-0.2-0.2-0.3-0.2h-0.8V375.3z M-172.3,375.8
									v1.3h-0.7v-3.6h1.5c0.2,0,0.4,0,0.6,0.1s0.3,0.1,0.4,0.2c0.1,0.1,0.2,0.2,0.3,0.4c0.1,0.1,0.1,0.3,0.1,0.5
									c0,0.2,0,0.3-0.1,0.5c-0.1,0.1-0.2,0.3-0.3,0.4s-0.3,0.2-0.4,0.2c-0.2,0.1-0.4,0.1-0.6,0.1h-0.8V375.8z"/>
								<path id="Fill-38" d="M-168.1,375.3h0.8c0.1,0,0.2,0,0.3,0s0.2-0.1,0.2-0.1c0.1-0.2,0.1-0.2,0.2-0.3c0-0.1,0-0.2,0-0.2
									c0-0.1,0-0.2,0-0.2c0-0.1-0.1-0.1-0.1-0.2c-0.1-0.1-0.1-0.1-0.2-0.1c-0.2-0.2-0.3-0.2-0.4-0.2h-0.8
									C-168.1,374-168.1,375.3-168.1,375.3z M-168.1,375.8v1.3h-0.7v-3.6h1.5c0.2,0,0.4,0,0.6,0.1s0.3,0.1,0.4,0.2
									c0.1,0.1,0.2,0.2,0.3,0.4c0.1,0.1,0.1,0.3,0.1,0.5c0,0.2,0,0.3-0.1,0.5c-0.1,0.1-0.2,0.3-0.3,0.4s-0.3,0.2-0.4,0.2
									c-0.2,0.1-0.4,0.1-0.6,0.1h-0.8C-168.1,375.9-168.1,375.8-168.1,375.8z"/>
							</g>
						</g>
					</g>
				</g>
			</g>
		</g>
	</g>
</g>
<g>
	<text transform="matrix(1 0 0 1 -195.9971 400.7666)" class="st4 st5 st6">TalentStory</text>
</g>
<image style="overflow:visible;" width="300" height="300" xlink:href="logo ts.png"  transform="matrix(0.1344 0 0 0.1344 -237.0208 377.3333)">
</image>
</svg>
